<?xml version="1.0" encoding="UTF-8" standalone="no"?>
<!DOCTYPE svg PUBLIC "-//W3C//DTD SVG 1.1//EN" "http://www.w3.org/Graphics/SVG/1.1/DTD/svg11.dtd">
<svg width="100%" height="100%" viewBox="0 0 355 355" version="1.1" xmlns="http://www.w3.org/2000/svg" xmlns:xlink="http://www.w3.org/1999/xlink" xml:space="preserve" xmlns:serif="http://www.serif.com/" style="fill-rule:evenodd;clip-rule:evenodd;stroke-linejoin:round;stroke-miterlimit:2;">
    <g transform="matrix(1,0,0,1,-444.29749,-1358.647725)">
        <g transform="matrix(0.374622,0,0,0.374622,277.853737,1071.07855)">
            <g transform="matrix(1,0,0,1,9.135089,9.135089)">
                <path d="M1380.229,818.032L1380.229,1644.013C1380.229,1676.875 1353.549,1703.556 1320.686,1703.556L494.705,1703.556C461.843,1703.556 435.162,1676.875 435.162,1644.013L435.162,818.032C435.162,785.169 461.843,758.489 494.705,758.489L1320.686,758.489C1353.549,758.489 1380.229,785.169 1380.229,818.032Z" style="fill:url(#_Linear1);"/>
            </g>
            <g transform="matrix(0.967677,0,0,0.967677,76.33156,50.53295)">
                <path d="M893.951,819.78C903.023,819.009 912.003,822.075 918.709,828.235C925.414,834.394 929.231,843.082 929.231,852.187C929.288,855.34 929.288,858.524 929.288,861.65C929.288,878.54 916.38,892.63 899.554,894.106C727.575,909.103 592.679,1053.479 592.679,1229.361C592.679,1405.244 727.575,1549.62 899.549,1564.674C916.345,1566.148 929.23,1580.212 929.23,1597.073C929.288,1600.199 929.288,1603.383 929.288,1606.536C929.288,1615.657 925.465,1624.36 918.747,1630.531C912.03,1636.701 903.034,1639.773 893.946,1639C683.461,1621.022 518.209,1444.49 518.209,1229.361C518.209,1014.233 683.461,837.701 893.951,819.78Z" style="fill:white;"/>
            </g>
            <g transform="matrix(1,0,0,1,176.674168,46.325194)">
                <path d="M799.136,1242.833C799.136,1242.833 868.98,1344.839 868.98,1383.513C868.98,1422.187 837.581,1453.585 798.907,1453.585C760.233,1453.585 728.835,1422.187 728.835,1383.513C728.835,1344.839 799.136,1242.833 799.136,1242.833Z" style="fill:white;"/>
            </g>
        </g>
    </g>
    <defs>
        <linearGradient id="_Linear1" x1="0" y1="0" x2="1" y2="0" gradientUnits="userSpaceOnUse" gradientTransform="matrix(672.674705,945.066437,-945.066437,672.674705,435.162402,758.489173)"><stop offset="0" style="stop-color:rgb(8,145,178);stop-opacity:1"/><stop offset="1" style="stop-color:rgb(45,212,191);stop-opacity:1"/></linearGradient>
    </defs>
</svg>
