<?xml version="1.0" encoding="UTF-8" standalone="no"?>
<!DOCTYPE svg PUBLIC "-//W3C//DTD SVG 1.1//EN" "http://www.w3.org/Graphics/SVG/1.1/DTD/svg11.dtd">
<svg width="100%" height="100%" viewBox="0 0 1769 521" version="1.1" xmlns="http://www.w3.org/2000/svg" xmlns:xlink="http://www.w3.org/1999/xlink" xml:space="preserve" xmlns:serif="http://www.serif.com/" style="fill-rule:evenodd;clip-rule:evenodd;stroke-linejoin:round;stroke-miterlimit:2;">
    <g transform="matrix(1,0,0,1,-646.84896,-385.115832)">
        <g transform="matrix(11.137927,0,0,11.137927,-4216.659288,-4521.085306)">
            <path d="M436.662,464.641C436.662,461.743 437.187,459.387 438.237,457.573C439.286,455.758 440.609,454.452 442.204,453.654C443.799,452.857 445.451,452.458 447.16,452.458C448.316,452.458 449.43,452.576 450.505,452.812C451.579,453.048 452.458,453.361 453.141,453.752L453.141,455.754C452.295,455.298 451.323,454.932 450.224,454.655C449.125,454.378 448.088,454.24 447.111,454.24C445.695,454.24 444.348,454.586 443.071,455.278C441.793,455.969 440.747,457.097 439.933,458.659C439.12,460.222 438.713,462.232 438.713,464.689C438.713,467.733 439.51,470.154 441.105,471.953C442.7,473.751 444.849,474.65 447.551,474.65C449.308,474.65 451.294,474.186 453.508,473.259L453.508,475.09C451.685,476.001 449.65,476.457 447.404,476.457C445.402,476.457 443.591,476.026 441.972,475.163C440.352,474.3 439.063,472.986 438.102,471.22C437.142,469.454 436.662,467.261 436.662,464.641Z" style="fill:rgb(240,240,240);fill-rule:nonzero;"/>
            <path d="M458.711,453.044L459.053,457.097L459.101,457.097C459.997,455.762 461.27,454.655 462.922,453.776C464.574,452.897 466.271,452.458 468.012,452.458L468.647,452.458L468.647,454.387L468.012,454.387C466.222,454.387 464.501,454.875 462.849,455.851C461.197,456.828 459.948,458.106 459.101,459.684L459.101,475.847L457.148,475.847L457.148,453.044L458.711,453.044Z" style="fill:rgb(240,240,240);fill-rule:nonzero;"/>
            <path d="M468.821,464.201C468.821,461.825 469.236,459.75 470.066,457.975C470.896,456.201 472.036,454.838 473.484,453.886C474.933,452.934 476.56,452.458 478.367,452.458C481.036,452.458 483.168,453.333 484.763,455.082C486.359,456.832 487.156,459.587 487.156,463.347L487.156,464.201L470.872,464.201C470.872,467.798 471.661,470.439 473.24,472.123C474.819,473.808 477.04,474.65 479.905,474.65C482.346,474.65 484.495,474.219 486.35,473.356L486.35,475.187C484.837,476.034 482.688,476.457 479.905,476.457C476.357,476.457 473.623,475.391 471.702,473.259C469.781,471.127 468.821,468.107 468.821,464.201ZM478.367,454.191C476.349,454.191 474.648,454.96 473.264,456.498C471.881,458.037 471.1,460.018 470.921,462.443L485.154,462.443C485.105,459.741 484.511,457.691 483.372,456.291C482.233,454.891 480.564,454.191 478.367,454.191Z" style="fill:rgb(240,240,240);fill-rule:nonzero;"/>
            <path d="M490.015,464.494C490.015,460.848 490.947,457.931 492.811,455.742C494.674,453.552 497.152,452.458 500.245,452.458C503.354,452.458 505.824,453.548 507.655,455.729C509.486,457.91 510.401,460.832 510.401,464.494C510.401,468.058 509.465,470.943 507.594,473.149C505.722,475.354 503.272,476.457 500.245,476.457C497.136,476.457 494.654,475.371 492.799,473.198C490.943,471.025 490.015,468.124 490.015,464.494ZM508.35,464.494C508.35,461.353 507.618,458.858 506.153,457.011C504.688,455.164 502.719,454.24 500.245,454.24C497.738,454.24 495.749,455.16 494.276,456.999C492.803,458.838 492.066,461.336 492.066,464.494C492.066,467.619 492.795,470.093 494.251,471.916C495.708,473.739 497.706,474.65 500.245,474.65C502.751,474.65 504.729,473.743 506.178,471.928C507.626,470.113 508.35,467.635 508.35,464.494Z" style="fill:rgb(240,240,240);fill-rule:nonzero;"/>
            <path d="M516.337,464.494C516.337,465.829 516.487,467.037 516.788,468.12C517.089,469.202 517.525,470.121 518.095,470.878C518.664,471.635 519.364,472.217 520.194,472.624C521.024,473.031 521.976,473.234 523.051,473.234C523.848,473.234 524.572,473.128 525.223,472.917C525.874,472.705 526.456,472.437 526.969,472.111C527.482,471.786 527.921,471.44 528.287,471.074C528.654,470.707 528.943,470.37 529.154,470.06L529.154,457.927C528.373,457.129 527.47,456.49 526.444,456.01C525.419,455.53 524.312,455.29 523.124,455.29C522.408,455.29 521.655,455.424 520.866,455.693C520.076,455.961 519.344,456.446 518.668,457.145C517.993,457.845 517.435,458.785 516.996,459.965C516.556,461.145 516.337,462.655 516.337,464.494ZM512.382,464.543C512.382,462.932 512.54,461.503 512.858,460.258C513.175,459.013 513.594,457.927 514.115,456.999C514.636,456.071 515.246,455.294 515.946,454.667C516.646,454.041 517.37,453.532 518.119,453.141C518.868,452.751 519.629,452.47 520.402,452.299C521.175,452.128 521.903,452.043 522.587,452.043C524.003,452.043 525.232,452.279 526.273,452.751C527.315,453.223 528.251,453.915 529.081,454.826L529.154,454.826L529.154,440.495L532.938,440.495L532.938,475.847L530.082,475.847L529.301,473.259L529.203,473.259C528.91,473.633 528.568,474.011 528.178,474.394C527.787,474.776 527.327,475.122 526.798,475.432C526.269,475.741 525.659,475.989 524.967,476.176C524.275,476.363 523.474,476.457 522.562,476.457C521.293,476.457 520.048,476.241 518.827,475.81C517.606,475.379 516.52,474.687 515.568,473.735C514.616,472.783 513.846,471.554 513.261,470.048C512.675,468.543 512.382,466.708 512.382,464.543Z" style="fill:url(#_Linear1);fill-rule:nonzero;"/>
            <path d="M550.226,455.729L549.933,455.729C549.038,455.729 548.159,455.811 547.297,455.974C546.434,456.136 545.624,456.385 544.867,456.718C544.111,457.052 543.427,457.463 542.817,457.951C542.206,458.439 541.698,459.017 541.291,459.684L541.291,475.847L537.507,475.847L537.507,452.653L540.436,452.653L541.169,456.34L541.242,456.34C541.616,455.738 542.076,455.176 542.621,454.655C543.167,454.134 543.781,453.679 544.465,453.288C545.148,452.897 545.897,452.592 546.711,452.372C547.525,452.153 548.379,452.043 549.274,452.043C549.437,452.043 549.604,452.047 549.775,452.055C549.946,452.063 550.096,452.075 550.226,452.092L550.226,455.729Z" style="fill:url(#_Linear2);fill-rule:nonzero;"/>
            <path d="M567.978,464.274C567.978,462.842 567.803,461.568 567.453,460.454C567.103,459.339 566.615,458.395 565.989,457.621C565.362,456.848 564.617,456.262 563.755,455.864C562.892,455.465 561.948,455.266 560.923,455.266C559.897,455.266 558.953,455.465 558.091,455.864C557.228,456.262 556.483,456.848 555.857,457.621C555.23,458.395 554.742,459.339 554.392,460.454C554.042,461.568 553.867,462.842 553.867,464.274C553.867,465.69 554.042,466.956 554.392,468.071C554.742,469.186 555.234,470.126 555.869,470.891C556.504,471.655 557.252,472.237 558.115,472.636C558.978,473.035 559.922,473.234 560.947,473.234C561.972,473.234 562.912,473.035 563.767,472.636C564.621,472.237 565.362,471.655 565.989,470.891C566.615,470.126 567.103,469.186 567.453,468.071C567.803,466.956 567.978,465.69 567.978,464.274ZM571.933,464.274C571.933,466.097 571.673,467.757 571.152,469.255C570.631,470.752 569.895,472.034 568.943,473.1C567.991,474.166 566.839,474.992 565.488,475.578C564.137,476.164 562.623,476.457 560.947,476.457C559.222,476.457 557.68,476.164 556.321,475.578C554.962,474.992 553.806,474.166 552.854,473.1C551.902,472.034 551.173,470.752 550.669,469.255C550.164,467.757 549.912,466.097 549.912,464.274C549.912,462.435 550.172,460.767 550.693,459.269C551.214,457.772 551.95,456.486 552.903,455.412C553.855,454.338 555.01,453.508 556.369,452.922C557.728,452.336 559.246,452.043 560.923,452.043C562.632,452.043 564.17,452.336 565.537,452.922C566.904,453.508 568.06,454.338 569.004,455.412C569.948,456.486 570.672,457.772 571.177,459.269C571.681,460.767 571.933,462.435 571.933,464.274Z" style="fill:url(#_Linear3);fill-rule:nonzero;"/>
            <path d="M591.516,464.03C591.516,462.679 591.373,461.467 591.086,460.392C590.8,459.318 590.37,458.403 589.797,457.646C589.225,456.889 588.521,456.307 587.686,455.9C586.851,455.493 585.885,455.29 584.789,455.29C584.003,455.29 583.287,455.396 582.64,455.607C581.994,455.819 581.408,456.087 580.884,456.413C580.361,456.739 579.911,457.088 579.534,457.463C579.158,457.837 578.855,458.171 578.626,458.464L578.626,470.598C579.428,471.411 580.34,472.054 581.364,472.526C582.387,472.998 583.487,473.234 584.666,473.234C585.386,473.234 586.147,473.1 586.949,472.831C587.752,472.563 588.492,472.083 589.172,471.391C589.851,470.699 590.411,469.759 590.853,468.571C591.295,467.383 591.516,465.869 591.516,464.03ZM595.471,463.981C595.471,465.593 595.312,467.021 594.993,468.266C594.674,469.511 594.254,470.598 593.73,471.525C593.207,472.453 592.594,473.23 591.891,473.857C591.188,474.483 590.461,474.988 589.709,475.371C588.957,475.753 588.193,476.03 587.416,476.201C586.64,476.371 585.908,476.457 585.222,476.457C583.799,476.457 582.565,476.225 581.519,475.761C580.473,475.297 579.533,474.61 578.699,473.698L578.627,473.698L578.627,487.199L574.915,487.199L574.915,452.653L577.771,452.653L578.577,455.29L578.65,455.29C578.862,454.964 579.134,454.647 579.468,454.338C579.802,454.029 580.249,453.699 580.811,453.349C581.372,452.999 582.048,452.694 582.837,452.433C583.627,452.173 584.485,452.043 585.413,452.043C586.715,452.043 587.972,452.263 589.185,452.702C590.397,453.141 591.468,453.841 592.395,454.802C593.323,455.762 594.068,456.995 594.629,458.5C595.191,460.006 595.471,461.833 595.471,463.981Z" style="fill:url(#_Linear4);fill-rule:nonzero;"/>
        </g>
    </g>
    <defs>
        <linearGradient id="_Linear1" x1="0" y1="0" x2="1" y2="0" gradientUnits="userSpaceOnUse" gradientTransform="matrix(96.728516,0,0,50,522.062296,463.66396)"><stop offset="0" style="stop-color:rgb(8,145,178);stop-opacity:1"/><stop offset="1" style="stop-color:rgb(45,212,191);stop-opacity:1"/></linearGradient>
        <linearGradient id="_Linear2" x1="0" y1="0" x2="1" y2="0" gradientUnits="userSpaceOnUse" gradientTransform="matrix(96.728516,0,0,50,522.062296,463.66396)"><stop offset="0" style="stop-color:rgb(8,145,178);stop-opacity:1"/><stop offset="1" style="stop-color:rgb(45,212,191);stop-opacity:1"/></linearGradient>
        <linearGradient id="_Linear3" x1="0" y1="0" x2="1" y2="0" gradientUnits="userSpaceOnUse" gradientTransform="matrix(96.728516,0,0,50,522.062296,463.66396)"><stop offset="0" style="stop-color:rgb(8,145,178);stop-opacity:1"/><stop offset="1" style="stop-color:rgb(45,212,191);stop-opacity:1"/></linearGradient>
        <linearGradient id="_Linear4" x1="0" y1="0" x2="1" y2="0" gradientUnits="userSpaceOnUse" gradientTransform="matrix(96.728516,0,0,50,522.062296,463.66396)"><stop offset="0" style="stop-color:rgb(8,145,178);stop-opacity:1"/><stop offset="1" style="stop-color:rgb(45,212,191);stop-opacity:1"/></linearGradient>
    </defs>
</svg>
